<?xml version="1.0" encoding="utf-8"?>
<!-- Generator: Adobe Illustrator 19.0.0, SVG Export Plug-In . SVG Version: 6.00 Build 0)  -->
<svg version="1.1" id="Layer_1" xmlns="http://www.w3.org/2000/svg" xmlns:xlink="http://www.w3.org/1999/xlink" x="0px" y="0px"
	 viewBox="0 0 595.3 841.9" style="enable-background:new 0 0 595.3 841.9;" xml:space="preserve">
<style type="text/css">
	.st0{fill:none;stroke:#1A1A1A;stroke-width:0.144;stroke-miterlimit:10;}
	.st1{fill:url(#XMLID_27_);}
	.st2{fill:none;stroke:#313439;stroke-width:9.2133;}
	.st3{fill:url(#XMLID_28_);stroke:#313439;stroke-width:9.2133;}
	.st4{fill:url(#XMLID_29_);stroke:#313439;stroke-width:9.2133;}
	.st5{fill:url(#XMLID_30_);stroke:#313439;stroke-width:9.2133;}
	.st6{fill:url(#XMLID_31_);stroke:#676767;stroke-width:9.2133;}
	.st7{fill:url(#XMLID_32_);stroke:#313439;stroke-width:9.2133;}
	.st8{fill:url(#XMLID_33_);stroke:#313439;stroke-width:9.2133;}
	.st9{fill:url(#XMLID_34_);stroke:#313439;stroke-width:9.2133;}
	.st10{fill:url(#XMLID_35_);stroke:#414042;stroke-width:9.2133;}
	.st11{fill:url(#XMLID_36_);stroke:#313439;stroke-width:9.2133;}
	.st12{fill:url(#XMLID_37_);stroke:#313439;stroke-width:9.2133;}
	.st13{fill:url(#XMLID_38_);stroke:#313439;stroke-width:9.2133;}
	.st14{fill:url(#XMLID_39_);stroke:#313439;stroke-width:9.2133;}
	.st15{fill:url(#XMLID_40_);stroke:#313439;stroke-width:9.2133;}
	.st16{fill:url(#XMLID_41_);stroke:#393136;stroke-width:9.2133;}
	.st17{fill:url(#XMLID_42_);stroke:#313439;stroke-width:9.2133;}
</style>
<g>
	<g id="XMLID_17_">
		<path id="XMLID_99_" class="st0" d="M181,510.3L25.8,599.6l103.3-179.2L25.8,241.5L180.6,331l113.7-197.4l114.6,198.1l155.7-89.6
			L460.7,421.4l103.4,178.7l-155-89.6L295,707.8L181,510.3z M295.1,625.7L373.6,490L295,444.6l-78.5,45.2L295.1,625.7z M137.5,487.9
			l23-13.2l-7.7-13.7L137.5,487.9z M451.6,487.6L437,462.4l-7.3,12.6L451.6,487.6z M394.2,454.4l19.1-33l-19.5-33.7l-57.6,33.2
			L394.2,454.4z M196,454.2l57.9-33.4l-58.3-33.7l-19.1,33.2L196,454.2z M295.1,397.2l78.2-45l-78.9-136.4l-78.2,135.8L295.1,397.2z
			 M437,380.4l15.2-26.3l-22.8,13.1L437,380.4z M152.7,379.3l7.3-12.7l-22-12.7L152.7,379.3z"/>
		<linearGradient id="XMLID_27_" gradientUnits="userSpaceOnUse" x1="295.14" y1="133.6359" x2="295.14" y2="707.8331">
			<stop  offset="6.451613e-002" style="stop-color:#A6D6AD"/>
			<stop  offset="0.457" style="stop-color:#F1F2F2"/>
			<stop  offset="0.485" style="stop-color:#DCDBDD"/>
			<stop  offset="0.6306" style="stop-color:#928D98"/>
			<stop  offset="0.7507" style="stop-color:#676472"/>
			<stop  offset="0.8395" style="stop-color:#4F4F60"/>
			<stop  offset="0.8871" style="stop-color:#454859"/>
		</linearGradient>
		<path id="XMLID_89_" class="st1" d="M181,510.3L25.8,599.6l103.3-179.2L25.8,241.5L180.6,331l113.7-197.4l114.6,198.1l155.7-89.6
			L460.7,421.4l103.4,178.7l-155-89.6L295,707.8L181,510.3z M295.1,625.7L373.6,490L295,444.6l-78.5,45.2L295.1,625.7z M137.5,487.9
			l23-13.2l-7.7-13.7L137.5,487.9z M451.6,487.6L437,462.4l-7.3,12.6L451.6,487.6z M394.2,454.4l19.1-33l-19.5-33.7l-57.6,33.2
			L394.2,454.4z M196,454.2l57.9-33.4l-58.3-33.7l-19.1,33.2L196,454.2z M295.1,397.2l78.2-45l-78.9-136.4l-78.2,135.8L295.1,397.2z
			 M437,380.4l15.2-26.3l-22.8,13.1L437,380.4z M152.7,379.3l7.3-12.7l-22-12.7L152.7,379.3z"/>
		<path id="XMLID_79_" class="st2" d="M181,510.3L25.8,599.6l103.3-179.2L25.8,241.5L180.6,331l113.7-197.4l114.6,198.1l155.7-89.6
			L460.7,421.4l103.4,178.7l-155-89.6L295,707.8L181,510.3z M295.1,625.7L373.6,490L295,444.6l-78.5,45.2L295.1,625.7z M137.5,487.9
			l23-13.2l-7.7-13.7L137.5,487.9z M451.6,487.6L437,462.4l-7.3,12.6L451.6,487.6z M394.2,454.4l19.1-33l-19.5-33.7l-57.6,33.2
			L394.2,454.4z M196,454.2l57.9-33.4l-58.3-33.7l-19.1,33.2L196,454.2z M295.1,397.2l78.2-45l-78.9-136.4l-78.2,135.8L295.1,397.2z
			 M437,380.4l15.2-26.3l-22.8,13.1L437,380.4z M152.7,379.3l7.3-12.7l-22-12.7L152.7,379.3z"/>
	</g>
	<linearGradient id="XMLID_28_" gradientUnits="userSpaceOnUse" x1="380.9118" y1="457.7226" x2="386.3719" y2="488.6886">
		<stop  offset="0" style="stop-color:#FFFFFF"/>
		<stop  offset="1" style="stop-color:#000000"/>
	</linearGradient>
	<line id="XMLID_16_" class="st3" x1="373.4" y1="491" x2="393.9" y2="455.4"/>
	<linearGradient id="XMLID_29_" gradientUnits="userSpaceOnUse" x1="273.0362" y1="419.3887" x2="278.0123" y2="447.6098">
		<stop  offset="0" style="stop-color:#FFFFFF"/>
		<stop  offset="1" style="stop-color:#000000"/>
	</linearGradient>
	<line id="XMLID_15_" class="st4" x1="295" y1="444.6" x2="256" y2="422.4"/>
	<linearGradient id="XMLID_30_" gradientUnits="userSpaceOnUse" x1="312.9809" y1="394.0273" x2="318.2805" y2="424.0828">
		<stop  offset="0" style="stop-color:#FFFFFF"/>
		<stop  offset="1" style="stop-color:#000000"/>
	</linearGradient>
	<line id="XMLID_14_" class="st5" x1="336.2" y1="420.9" x2="295.1" y2="397.2"/>
	<linearGradient id="XMLID_31_" gradientUnits="userSpaceOnUse" x1="216.0098" y1="356.1978" x2="216.0098" y2="356.1978">
		<stop  offset="0" style="stop-color:#FFFFFF"/>
		<stop  offset="1" style="stop-color:#000000"/>
	</linearGradient>
	<path id="XMLID_1_" class="st6" d="M216,356.2"/>
	<linearGradient id="XMLID_32_" gradientUnits="userSpaceOnUse" x1="168.3134" y1="333.1517" x2="173.4603" y2="362.341">
		<stop  offset="0" style="stop-color:#FFFFFF"/>
		<stop  offset="1" style="stop-color:#000000"/>
	</linearGradient>
	<line id="XMLID_12_" class="st7" x1="161.2" y1="364.5" x2="180.6" y2="331"/>
	<linearGradient id="XMLID_33_" gradientUnits="userSpaceOnUse" x1="162.1115" y1="377.62" x2="171.1881" y2="429.0962">
		<stop  offset="0" style="stop-color:#FFFFFF"/>
		<stop  offset="1" style="stop-color:#000000"/>
	</linearGradient>
	<line id="XMLID_11_" class="st8" x1="152.7" y1="379.3" x2="180.6" y2="427.4"/>
	<linearGradient id="XMLID_34_" gradientUnits="userSpaceOnUse" x1="137.7544" y1="418.8582" x2="146.0984" y2="466.1798">
		<stop  offset="0" style="stop-color:#FFFFFF"/>
		<stop  offset="1" style="stop-color:#000000"/>
	</linearGradient>
	<line id="XMLID_10_" class="st9" x1="129.1" y1="420.4" x2="154.8" y2="464.6"/>
	<linearGradient id="XMLID_35_" gradientUnits="userSpaceOnUse" x1="177.785" y1="457.1623" x2="180.2144" y2="470.9404">
		<stop  offset="0" style="stop-color:#FFFFFF"/>
		<stop  offset="1" style="stop-color:#000000"/>
	</linearGradient>
	<line id="XMLID_9_" class="st10" x1="161.2" y1="474.3" x2="196.8" y2="453.8"/>
	<linearGradient id="XMLID_36_" gradientUnits="userSpaceOnUse" x1="197.5446" y1="493.1479" x2="199.9762" y2="506.9384">
		<stop  offset="0" style="stop-color:#FFFFFF"/>
		<stop  offset="1" style="stop-color:#000000"/>
	</linearGradient>
	<line id="XMLID_8_" class="st11" x1="181" y1="510.3" x2="216.6" y2="489.8"/>
	<linearGradient id="XMLID_37_" gradientUnits="userSpaceOnUse" x1="417.4671" y1="477.1627" x2="422.8022" y2="507.419">
		<stop  offset="0" style="stop-color:#FFFFFF"/>
		<stop  offset="1" style="stop-color:#000000"/>
	</linearGradient>
	<line id="XMLID_7_" class="st12" x1="410.5" y1="509.6" x2="429.7" y2="475"/>
	<linearGradient id="XMLID_38_" gradientUnits="userSpaceOnUse" x1="422.1444" y1="421.8195" x2="429.5358" y2="463.7385">
		<stop  offset="0" style="stop-color:#FFFFFF"/>
		<stop  offset="1" style="stop-color:#000000"/>
	</linearGradient>
	<line id="XMLID_6_" class="st13" x1="437" y1="462.4" x2="414.7" y2="423.1"/>
	<linearGradient id="XMLID_39_" gradientUnits="userSpaceOnUse" x1="445.6284" y1="380.7124" x2="453.3579" y2="424.5486">
		<stop  offset="0" style="stop-color:#FFFFFF"/>
		<stop  offset="1" style="stop-color:#000000"/>
	</linearGradient>
	<line id="XMLID_5_" class="st14" x1="461.4" y1="423.1" x2="437.6" y2="382.1"/>
	<linearGradient id="XMLID_40_" gradientUnits="userSpaceOnUse" x1="409.5491" y1="370.8955" x2="411.9807" y2="384.686">
		<stop  offset="0" style="stop-color:#FFFFFF"/>
		<stop  offset="1" style="stop-color:#000000"/>
	</linearGradient>
	<line id="XMLID_4_" class="st15" x1="393" y1="388" x2="428.6" y2="367.5"/>
	<linearGradient id="XMLID_41_" gradientUnits="userSpaceOnUse" x1="389.8932" y1="335.3441" x2="392.3249" y2="349.1345">
		<stop  offset="0" style="stop-color:#FFFFFF"/>
		<stop  offset="1" style="stop-color:#000000"/>
	</linearGradient>
	<line id="XMLID_3_" class="st16" x1="373.3" y1="352.5" x2="408.9" y2="332"/>
</g>
<linearGradient id="XMLID_42_" gradientUnits="userSpaceOnUse" x1="203.1365" y1="353.8375" x2="208.6051" y2="384.8513">
	<stop  offset="0" style="stop-color:#FFFFFF"/>
	<stop  offset="1" style="stop-color:#000000"/>
</linearGradient>
<line id="XMLID_2_" class="st17" x1="195.6" y1="387.1" x2="216.1" y2="351.5"/>
</svg>
